<svg xmlns="http://www.w3.org/2000/svg" viewBox="0 0 2006 714" fill="black"><g fill-rule="evenodd"><path d="M121.5 407.25 239 9.25H12.75zM334 12.25 175.75 587.5q-6.25 41.25 6.75 69.25t42.75 36h66L485 12.25zm250 0L425.75 587.5q-6.25 41.25 6.75 69.25t42.75 36h72.5L741 12.25zm68.75 677H738q31-5 56-27.75t36.5-57.5L915 304q36-103.5 136.75-131.5c100.75-28 164 31.25 173 46 2.864-9.614 12.82-45.466 32.5-81 18-32.5 42.5-65 47.5-69.75-30.5-27.5-166-96-316.25-44Q826.836 79.7 769.75 238.25zM1641 5c193.852 0 351 157.148 351 351s-157.148 351-351 351c-72.26 0-139.421-21.836-195.243-59.27q29.301-37.037 47.243-69.48 18.25-33 32.75-83 9.582 14.202 18 21.5l.642.548q6.586 5.55 19.88 13.662C1587.754 541.276 1613.71 547 1641 547c105.486 0 191-85.514 191-191s-85.514-191-191-191-191 85.514-191 191q0 2.569.067 5.12L1450 361q0 64.5-30 139.5-15.95 39.875-58.236 88.55c-29.758 33.08-69.433 64.11-122.264 88.7-123 57.25-271.75 21.75-321.25-12.25l49.5-170.25c30.25 50 139.75 67.5 199.5 40.75q120.905-54.13 122.75-172l.09.003q-.09-3.99-.09-8.003c0-193.852 157.148-351 351-351"></path></g></svg>
